<?xml version="1.0" standalone="no"?>
<svg viewBox="0 0 200 200" xmlns="http://www.w3.org/2000/svg">
  <path fill="#ECD2FA" d="M46.8,-75.5C58.4,-65.4,63.9,-48.6,70.9,-32.6C77.9,-16.6,86.5,-1.5,87.1,14.4C87.8,30.3,80.6,47,68.3,56.7C56,66.5,38.6,69.3,22.6,71.6C6.5,74,-8.1,75.7,-22.9,73.5C-37.8,71.3,-52.8,65,-64.8,54.3C-76.9,43.7,-86,28.7,-88.3,12.7C-90.6,-3.3,-86.2,-20.3,-78.7,-35.6C-71.3,-51,-60.8,-64.6,-47.1,-73.8C-33.5,-83,-16.8,-87.7,0.4,-88.4C17.6,-89.1,35.3,-85.7,46.8,-75.5Z" transform="translate(100 100)" />
</svg>
